<?xml version="1.0" encoding="utf-8"?>
<!-- Generator: Adobe Illustrator 16.0.0, SVG Export Plug-In . SVG Version: 6.00 Build 0)  -->
<!DOCTYPE svg PUBLIC "-//W3C//DTD SVG 1.1//EN" "http://www.w3.org/Graphics/SVG/1.1/DTD/svg11.dtd">
<svg version="1.1" id="Layer_1" xmlns="http://www.w3.org/2000/svg" xmlns:xlink="http://www.w3.org/1999/xlink" x="0px" y="0px"
	 width="72px" height="72px" viewBox="0 0 72 72" enable-background="new 0 0 72 72" xml:space="preserve">
<g>
	<polygon fill-rule="evenodd" clip-rule="evenodd" fill="#FFFFFF" points="3,5 68.5,5 68.5,69 3,69 3,5 3,5 	"/>
	<path fill-rule="evenodd" clip-rule="evenodd" fill="#447986" d="M67.5,6.25c0,61.75,0,61.75,0,61.75C3.75,68,3.75,68,3.75,68
		c0-61.75,0-61.75,0-61.75C67.5,6.25,67.5,6.25,67.5,6.25L67.5,6.25z M54.75,64.5c1.25,0,2.25-1,2.5-2.25l0,0C62,12,62,12,62,12
		c0-1.25-0.75-2.25-2-2.25l0,0c-49,0-49,0-49,0C9.75,9.75,9,11,9.25,12c4.5,50.25,4.5,50.25,4.5,50.25C14,63.5,15,64.5,16.25,64.5
		l0,0c11,0,11,0,11,0c0,2.5,0,2.5,0,2.5c16,0,16,0,16,0c0-2.5,0-2.5,0-2.5C54.75,64.5,54.75,64.5,54.75,64.5L54.75,64.5z"/>
	<polygon fill-rule="evenodd" clip-rule="evenodd" fill="#447986" points="21.75,40 16.5,40 16.5,49.5 21.75,49.5 21.75,47.25 
		19.5,47.25 19.5,45.75 21.75,45.75 21.75,43.75 19.5,43.75 19.5,42.25 21.75,42.25 21.75,40 21.75,40 	"/>
	<polygon fill-rule="evenodd" clip-rule="evenodd" fill="#447986" points="34,40 35.25,49.5 39,49.5 40.75,40 38.75,40 37.75,45.75 
		36.75,40 34,40 34,40 	"/>
	<polygon fill-rule="evenodd" clip-rule="evenodd" fill="#447986" points="33.5,40 28.25,40 28.25,49.5 33.5,49.5 33.5,47.25 
		31.25,47.25 31.25,45.75 33.5,45.75 33.5,43.75 31.25,43.75 31.25,42.25 33.5,42.25 33.5,40 33.5,40 	"/>
	<polygon fill-rule="evenodd" clip-rule="evenodd" fill="#447986" points="46.5,40 41.5,40 41.5,49.5 46.5,49.5 46.5,47.25 
		44.25,47.25 44.25,45.75 46.5,45.75 46.5,43.75 44.25,43.75 44.25,42.25 46.5,42.25 46.5,40 46.5,40 	"/>
	<polygon fill-rule="evenodd" clip-rule="evenodd" fill="#447986" points="25.75,40 22.75,40 22.75,49.5 27.5,49.5 27.5,47.25 
		25.75,47.25 25.75,40 25.75,40 	"/>
	<path fill-rule="evenodd" clip-rule="evenodd" fill="#447986" d="M47.75,40c0,9.5,0,9.5,0,9.5c2.75,0,2.75,0,2.75,0
		c0-6.5,0-6.5,0-6.5c0-0.75,1.25-0.75,1.25,0l0,0c0,6.5,0,6.5,0,6.5c3,0,3,0,3,0c0-8,0-8,0-8C54.75,40.75,54,40,53,40
		c-0.5,0-1.25,0.25-1.75,0.75C51,41,50.5,41,50.5,40l0,0C47.75,40,47.75,40,47.75,40L47.75,40z"/>
	<path fill-rule="evenodd" clip-rule="evenodd" fill="#D93A42" d="M43,50.25c-13.5,0-13.5,0-13.5,0c-1,6.25-1.25,8-1.25,15.5l0,0
		c14.25,0,14.25,0,14.25,0c0-4.25,0-6.25,0-8.25C42.5,55.75,42.75,53.75,43,50.25L43,50.25z"/>
	<path fill-rule="evenodd" clip-rule="evenodd" fill="#EB9A2B" d="M51,15.75c-33.75,0-33.75,0-33.75,0c0,12.25,0,12.25,0,12.25
		c18.25,0,18.25,0,18.25,0C39.75,22.5,45,18.5,51,15.75L51,15.75z"/>
	<path fill-rule="evenodd" clip-rule="evenodd" fill="#D93A42" d="M31,39.25c13.5,0,13.5,0,13.5,0c1.75-6.25,5-9,10-10.75l0,0
		c0-13,0-13,0-13C43.5,19,34.5,28.25,31,39.25L31,39.25z"/>
</g>
</svg>
