<?xml version="1.0" encoding="utf-8"?>
<!-- Generator: Adobe Illustrator 16.0.0, SVG Export Plug-In . SVG Version: 6.00 Build 0)  -->
<!DOCTYPE svg PUBLIC "-//W3C//DTD SVG 1.1//EN" "http://www.w3.org/Graphics/SVG/1.1/DTD/svg11.dtd">
<svg version="1.1" id="Layer_1" xmlns="http://www.w3.org/2000/svg" xmlns:xlink="http://www.w3.org/1999/xlink" x="0px" y="0px"
	 width="72px" height="72px" viewBox="0 0 72 72" enable-background="new 0 0 72 72" xml:space="preserve">
<g>
	<path fill="#CB0000" d="M24.5,69.611c-7.25,0-14.5,0-21.75,0c-0.5,0-0.75,0-0.75-0.75c0-14,0-28.25,0-42.25
		c0.25-7.25,2.75-13.25,8.25-18.25c3.75-3.5,8.25-5.5,13.5-6c1.25-0.25,2.75-0.25,4-0.25c5.75,0,11.75-0.25,17.5,0
		c10,0.25,18.25,5.75,22.25,14.75c1.5,3.25,2.25,6.75,2.25,10.25c0,6,0,12,0,18c-0.25,10.5-6.25,19-15.5,22.75
		c-3,1.25-6.25,1.75-9.5,1.75C38,69.611,31.25,69.611,24.5,69.611L24.5,69.611z"/>
	<path fill="#CC0404" d="M14.25,47.611c0-0.5,0-1.25,0.75-1.25s0.75,0.75,0.75,1.25s0,1-0.75,1
		C14.5,48.861,14.25,48.361,14.25,47.611L14.25,47.611z"/>
	<path fill-rule="evenodd" clip-rule="evenodd" fill="#FFFFFF" d="M17,45.861c-0.5-0.5-1-0.75-1.75-0.75c-1,0.25-1,0.25-1,0.25
		c-0.75,0.5-0.75,0.5-0.75,0.5c0-0.75,0-0.75,0-0.75c-1.75,0-1.75,0-1.75,0c0,7,0,7,0,7c2,0,2,0,2,0c0-2.25,0-2.25,0-2.25
		c0.5,0.5,0.75,0.5,1.25,0.5c0.75,0,1.25,0,1.75-0.5s0.75-1.25,0.75-2.25C17.5,46.861,17.25,46.361,17,45.861L17,45.861z
		 M15.5,47.861c0,0.75-0.25,1-1,1c-0.5,0-0.75-0.25-0.75-1.25c0.25-0.75,0.25-0.75,0.25-0.75c0.25-0.25,0.25-0.25,0.5-0.25
		C15.25,46.611,15.5,46.861,15.5,47.861L15.5,47.861z"/>
	<path fill-rule="evenodd" clip-rule="evenodd" fill="#FFFFFF" d="M23.5,47.361c0-1.5-0.75-2.25-2-2.25c-0.75,0-1.25,0.25-1.5,0.75
		c0-2.5,0-2.5,0-2.5c-2.25,0-2.25,0-2.25,0c0,7,0,7,0,7c2.25,0,2.25,0,2.25,0c0-2.5,0-2.5,0-2.5c0-0.75,0.25-1.25,0.75-1.25
		s0.75,0.5,0.75,1c0,2.75,0,2.75,0,2.75c2,0,2,0,2,0C23.5,47.361,23.5,47.361,23.5,47.361L23.5,47.361z"/>
	<path fill-rule="evenodd" clip-rule="evenodd" fill="#FFFFFF" d="M28.5,45.611c-0.25-0.5-1-0.75-2-0.75
		c-1.75,0-2.75,0.75-2.75,1.75c1.75,0,1.75,0,1.75,0c0.25-0.25,0.25-0.5,0.75-0.5s0.75,0.25,0.75,0.5
		c-0.75,0.25-0.75,0.25-0.75,0.25c-1,0.25-1,0.25-1,0.25c-1.25,0.25-1.75,0.75-1.75,1.5c0,0.5,0,1,0.5,1.25
		c0.25,0.25,0.75,0.25,1.25,0.25c0.75,0,1.25-0.25,1.75-0.5c0.25,0.5,0.25,0.5,0.25,0.5c2,0,2,0,2,0c0-0.25,0-0.25,0-0.25
		c-0.5-0.5-0.5-0.5-0.5-0.5c0-2.25,0-2.25,0-2.25C28.75,46.361,28.75,45.861,28.5,45.611L28.5,45.611z M27,47.861
		c0,0.75-0.25,1.25-1,1.25c-0.25,0-0.5-0.25-0.5-0.5s0-0.5,0.5-0.5C27,47.861,27,47.861,27,47.861L27,47.861z"/>
	<path fill-rule="evenodd" clip-rule="evenodd" fill="#FFFFFF" d="M29.5,45.111c0,5,0,5,0,5c2,0,2,0,2,0c0-1.75,0-1.75,0-1.75
		c0-1,0.25-1.5,1-1.5c0.5,0,0.5,0,0.5,0c0-1.75,0-1.75,0-1.75c-0.25-0.25-0.25-0.25-0.25-0.25c-0.75,0-1.25,0.5-1.5,1.25l0,0
		c0-1,0-1,0-1C29.5,45.111,29.5,45.111,29.5,45.111L29.5,45.111z"/>
	<path fill-rule="evenodd" clip-rule="evenodd" fill="#FFFFFF" d="M33.5,50.111c2,0,2,0,2,0c0-2.5,0-2.5,0-2.5c0-0.75,0.25-1,0.5-1
		s0.5,0,0.5,0c0.25,1,0.25,1,0.25,1c0,2.5,0,2.5,0,2.5c2,0,2,0,2,0c0-2.5,0-2.5,0-2.5c0-0.75,0.25-1,0.75-1s0.5,0,0.5,0c0,1,0,1,0,1
		c0,2.5,0,2.5,0,2.5c2,0,2,0,2,0c0-3,0-3,0-3c0-1.5-0.75-2.25-2-2.25c-0.5,0-1.25,0.5-1.5,1c-0.25-0.5-1-1-1.75-1
		c-0.25,0-0.75,0.25-1,0.5c-0.5,0.5-0.5,0.5-0.5,0.5c0-0.75,0-0.75,0-0.75c-1.75,0-1.75,0-1.75,0
		C33.5,50.111,33.5,50.111,33.5,50.111L33.5,50.111z"/>
	<path fill-rule="evenodd" clip-rule="evenodd" fill="#FFFFFF" d="M47.25,45.611c-0.25-0.5-1-0.75-2-0.75
		c-1.75,0-2.75,0.5-2.75,1.75c2,0,2,0,2,0c0-0.25,0.25-0.5,0.5-0.5c0.5,0,0.75,0.25,0.75,0.5s-0.25,0.25-0.5,0.25
		C44,47.111,44,47.111,44,47.111c-1.25,0.25-1.75,0.75-1.75,1.5c0,0.5,0.25,1,0.5,1.25s0.75,0.25,1.25,0.25
		c0.75,0,1.25-0.25,1.75-0.5c0.25,0.5,0.25,0.5,0.25,0.5c2,0,2,0,2,0c0-0.25,0-0.25,0-0.25c-0.25,0-0.25-0.25-0.25-0.5
		c0-2.25,0-2.25,0-2.25C47.75,46.361,47.5,45.861,47.25,45.611L47.25,45.611z M45.75,47.861c0,0.75-0.25,1.25-0.75,1.25
		s-0.75-0.25-0.75-0.5s0.25-0.5,0.5-0.5C45.75,47.861,45.75,47.861,45.75,47.861L45.75,47.861z"/>
	<path fill-rule="evenodd" clip-rule="evenodd" fill="#FFFFFF" d="M52.5,45.361c-0.25-0.25-1-0.5-1.75-0.5s-1.5,0.25-2,0.75
		s-0.75,1.25-0.75,2s0.25,1.5,0.75,2c0.5,0.25,1.25,0.5,2,0.5c1.75,0,2.75-0.5,2.75-2c-2,0-2,0-2,0c0,0.5-0.25,0.75-0.75,0.75
		s-0.75-0.5-0.75-1.25s0.25-1.25,0.75-1.25c0.25,0,0.5,0,0.5,0c0.25,0.5,0.25,0.5,0.25,0.5c2,0,2,0,2,0
		C53.5,46.361,53.25,45.861,52.5,45.361L52.5,45.361z"/>
	<path fill-rule="evenodd" clip-rule="evenodd" fill="#FFFFFF" d="M55.25,45.111c-2.25,0-2.25,0-2.25,0
		c1.75,4.75,1.75,4.75,1.75,4.75c0,0.5,0,0.5,0,0.5c0,0.25-0.25,0.25-0.5,0.25c-0.5,0-0.5,0-0.5,0c0,1.5,0,1.5,0,1.5c1,0,1,0,1,0
		c0.75,0,1.5-0.25,1.75-0.5c0.75-1.75,0.75-1.75,0.75-1.75c1.75-4.75,1.75-4.75,1.75-4.75c-2,0-2,0-2,0c-1,3.25-1,3.25-1,3.25
		C55.25,45.111,55.25,45.111,55.25,45.111L55.25,45.111z"/>
	<path fill-rule="evenodd" clip-rule="evenodd" fill="#FFFFFF" d="M23.25,30.861c5.5,0,5.5,0,5.5,0c-0.25-2.25-1-4-2.5-5.25
		s-3.75-2-6.5-2c-2.5,0-4.75,0.75-6.25,2.5c-1.75,1.75-2.75,4-2.75,7s1,5.25,2.5,7c1.75,1.75,4.25,2.5,7.25,2.5
		c2.25,0,4.25-0.75,5.75-2s2.5-3.25,2.75-5.5c-5.75,0-5.75,0-5.75,0c-0.25,2-1.25,3-3,3c-1.25,0-2.25-0.5-2.75-1.5
		c-0.5-0.75-0.75-1.75-0.75-3.25c0-1.75,0.25-3,0.75-4c0.75-0.75,1.5-1.25,2.5-1.25s1.75,0.25,2.25,0.75S23.25,30.111,23.25,30.861
		L23.25,30.861z"/>
	<polygon fill-rule="evenodd" clip-rule="evenodd" fill="#FFFFFF" points="39.5,24.111 36.25,36.111 33,24.111 27,24.111 
		33.25,42.361 39,42.361 45.5,24.111 39.5,24.111 39.5,24.111 	"/>
	<path fill-rule="evenodd" clip-rule="evenodd" fill="#FFFFFF" d="M46.25,25.111c-1.5,1-2,2.5-2,4.25c0,1.5,0.5,2.75,1.5,3.75
		c0.75,0.75,2,1.25,3.5,1.75c3.75,1,3.75,1,3.75,1c1,0.25,1.5,0.75,1.5,1.25s-0.25,0.75-0.75,1C52,38.361,52,38.361,52,38.361
		c-0.5,0-1.25,0-1.75-0.25c-0.5-0.5-0.75-1-0.75-1.5c-5.75,0-5.75,0-5.75,0c0,1.75,0.75,3,2.25,4.25s3.5,1.75,5.75,1.75
		c2.5,0,4.5-0.5,6-1.5c1.75-1.25,2.5-2.75,2.5-4.75c0-1.5-0.75-2.75-1.75-3.5c-0.75-0.75-2-1.25-3.5-1.75c-3.5-1-3.5-1-3.5-1
		c-1.25-0.25-1.75-0.75-1.75-1.25c0-0.75,0.75-1,2-1c1.5,0.25,1.5,0.25,1.5,0.25c0.5,0.25,0.75,0.75,0.75,1.25c5.75,0,5.75,0,5.75,0
		c-0.25-1.75-1-3-2.25-4c-1.25-1.25-3.25-1.75-5.5-1.75C49.5,23.611,47.75,24.111,46.25,25.111L46.25,25.111z"/>
</g>
</svg>
