<?xml version="1.0" encoding="utf-8"?>
<!-- Generator: Adobe Illustrator 16.0.0, SVG Export Plug-In . SVG Version: 6.00 Build 0)  -->
<!DOCTYPE svg PUBLIC "-//W3C//DTD SVG 1.1//EN" "http://www.w3.org/Graphics/SVG/1.1/DTD/svg11.dtd">
<svg version="1.1" id="Layer_1" xmlns="http://www.w3.org/2000/svg" xmlns:xlink="http://www.w3.org/1999/xlink" x="0px" y="0px"
	 width="72px" height="72px" viewBox="0 0 72 72" enable-background="new 0 0 72 72" xml:space="preserve">
<g>
	<path fill-rule="evenodd" clip-rule="evenodd" fill="#DC382A" d="M14.5,39.25c-2.5-1.5-4-4.25-4-7.5c0-5,4-9,9-9
		c5.25,0,9.25,4,9.25,9c0,3.5-1.75,6.5-4.5,8C27,42.25,29,46.5,29.5,51.5c1.5,0.75,2.5,2.25,2.5,4c0,1.5-0.75,2.75-1.75,3.5
		c0.5,0.25,1,0.75,1.5,1.5C32,56.75,33.25,53.75,35,52c-2.25-1.25-3.75-3.5-3.75-6.25c0-3.75,3-6.75,6.75-6.75
		c0.75,0,1.5,0.25,2.25,0.5c0.75-1.25,1.5-2.25,2.25-3.25c-3.5-2-5.75-5.75-5.75-10c0-6.5,5.25-11.5,11.75-11.5s11.75,5,11.75,11.5
		c0,4-2,7.5-5,9.5c3.75,4,6.25,11.25,6.25,19.5c0,1-0.25,2-0.25,2.75c5-5.75,8-13.25,8-21.5c0-18.5-15-33.5-33.5-33.5
		C17,3,2,18,2,36.5c0,7.25,2.5,14,6.5,19.5c0-0.5,0-1,0-1.5C8.5,47.75,10.75,42,14.5,39.25L14.5,39.25z"/>
	<path fill="#FFFFFF" d="M22.25,67.25c0.25-3.5,1.5-6.5,3.25-8c-1.25-0.75-2.25-2.25-2.25-3.75c0-2.5,2-4.5,4.5-4.5
		c0.5,0,1.25,0.25,1.75,0.5c-0.5-5-2.5-9.25-5.25-11.75c2.75-1.5,4.5-4.5,4.5-8c0-5-4-9-9.25-9c-5,0-9,4-9,9c0,3.25,1.5,6,4,7.5
		c-3.75,2.75-6,8.5-6,15.25c0,0.5,0,1,0,1.5C12,61,16.75,64.75,22.25,67.25L22.25,67.25z"/>
	<path fill="#E6A127" d="M55.25,35.75c3-2,5-5.5,5-9.5c0-6.5-5.25-11.5-11.75-11.5s-11.75,5-11.75,11.5c0,4.25,2.25,8,5.75,10
		c-0.75,1-1.5,2-2.25,3.25c2.75,0.75,4.5,3.25,4.5,6.25c0,2.5-1.25,4.75-3.25,5.75c2.5,2.25,4,6.5,4,11.5c0,2-0.25,4-0.75,5.75
		C51.25,67,57,63.25,61.25,58c0-0.75,0.25-1.75,0.25-2.75C61.5,47,59,39.75,55.25,35.75L55.25,35.75z"/>
	<path fill="#FFFFFF" d="M41.5,51.5c2-1,3.25-3.25,3.25-5.75c0-3-1.75-5.5-4.5-6.25C39.5,39.25,38.75,39,38,39
		c-3.75,0-6.75,3-6.75,6.75c0,2.75,1.5,5,3.75,6.25c-1.75,1.75-3,4.75-3.25,8.5C33,62.25,34,65,34,68.25c0,0.5,0,1.25-0.25,1.75
		c0.75,0,1.25,0,2,0c1.25,0,2.5,0,4-0.25c1.75-0.25,3.25-0.5,5-1C45.25,67,45.5,65,45.5,63C45.5,58,44,53.75,41.5,51.5L41.5,51.5z"
		/>
	<path fill="#E6A127" d="M31.75,60.5c-0.5-0.75-1-1.25-1.5-1.5c1-0.75,1.75-2,1.75-3.5c0-1.75-1-3.25-2.5-4
		C29,51.25,28.25,51,27.75,51c-2.5,0-4.5,2-4.5,4.5c0,1.5,1,3,2.25,3.75c-1.75,1.5-3,4.5-3.25,8c1,0.5,2,0.75,3,1
		c2.25,1,4.75,1.5,7.5,1.75c0.25,0,0.75,0,1,0C34,69.5,34,68.75,34,68.25C34,65,33,62.25,31.75,60.5L31.75,60.5z"/>
</g>
</svg>
