<?xml version="1.0" encoding="utf-8"?>
<!-- Generator: Adobe Illustrator 16.0.0, SVG Export Plug-In . SVG Version: 6.00 Build 0)  -->
<!DOCTYPE svg PUBLIC "-//W3C//DTD SVG 1.1//EN" "http://www.w3.org/Graphics/SVG/1.1/DTD/svg11.dtd">
<svg version="1.1" id="Layer_1" xmlns="http://www.w3.org/2000/svg" xmlns:xlink="http://www.w3.org/1999/xlink" x="0px" y="0px"
	 width="72px" height="72px" viewBox="0 0 72 72" enable-background="new 0 0 72 72" xml:space="preserve">
<g>
	<path fill="#FFFFFF" d="M69.25,31.25L69.25,31.25c0-19.75,0-19.75,0-19.75c0-1.5-1.5-3.5-3.75-3.5C5.75,8,5.75,8,5.75,8
		C3.5,8,2,9.25,2,11.75C2,32,2,32,2,32"/>
	<path fill="#FFFFFF" d="M2,32c0,17,0,17,0,17c0.25,5.5,6.75,7.25,6.75,7.25c26.75,9,26.75,9,26.75,9c26.75-9,26.75-9,26.75-9
		s7-1.75,7-7.5c0-17.5,0-17.5,0-17.5"/>
	<path fill="#025098" d="M69.25,30.5c0-19,0-19,0-19c0-1.5-1.5-3.5-3.75-3.5C5.75,8,5.75,8,5.75,8C3.5,8,2,9.25,2,11.75
		c0,12.5,0,12.5,0,12.5v6.25C69.25,30.5,69.25,30.5,69.25,30.5L69.25,30.5L69.25,30.5z"/>
	<path fill="#EF3E42" d="M2,32.75v7C2,49,2,49,2,49c0.25,5.5,6.75,7.25,6.75,7.25c26.75,9,26.75,9,26.75,9c26.75-9,26.75-9,26.75-9
		s7-1.75,7-7.5c0-16,0-16,0-16l0,0C2,32.75,2,32.75,2,32.75L2,32.75L2,32.75z"/>
	<path fill="#FFFFFF" d="M14.75,54.75l6.5-18c4.25,0,4.25,0,4.25,0l7,18c-4.25,0-4.25,0-4.25,0c-1.25-3-1.25-3-1.25-3c-7,0-7,0-7,0
		c-1.25,3-1.25,3-1.25,3C14.75,54.75,14.75,54.75,14.75,54.75L14.75,54.75z M25.75,48.25c-2.25-6-2.25-6-2.25-6l0,0
		c-2.25,6-2.25,6-2.25,6C25.75,48.25,25.75,48.25,25.75,48.25L25.75,48.25z"/>
	<polygon fill="#FFFFFF" points="34.25,37 38.25,37 38.25,54.5 34.25,54.5 34.25,37 34.25,37 	"/>
	<path fill="#FFFFFF" d="M41.5,37c8.5,0,8.5,0,8.5,0c2.75,0,6.75,2,7,8.5c0,5-2.25,9-8.5,9c-7,0-7,0-7,0C41.5,37,41.5,37,41.5,37
		L41.5,37z M45.25,51.5c2.75,0,2.75,0,2.75,0c4,0,5-2.75,5-5.75c0-3.5-1-5.5-4.75-5.5c-3,0-3,0-3,0
		C45.25,51.5,45.25,51.5,45.25,51.5L45.25,51.5z"/>
	<polygon fill="#FFFFFF" points="27.75,11 32.25,11 32.25,27.5 27.75,27.5 27.75,11 27.75,11 	"/>
	<polygon fill="#FFFFFF" points="33.5,11 46.25,11 46.25,14.75 42,14.75 42,27.5 37.75,27.5 37.75,14.75 33.5,14.75 33.5,11 
		33.5,11 	"/>
	<polygon fill="#FFFFFF" points="59,17.5 59,21 51.75,21 51.75,24 60.25,24 60.25,27.5 47.75,27.5 47.75,11 60.25,11 60.25,14.75 
		51.75,14.75 51.75,17.5 59,17.5 59,17.5 	"/>
	<path fill="#FFFFFF" d="M11.75,11c8.5,0,8.5,0,8.5,0c4.25,0,6,2.5,6,5.75c0,1.75-1,4-3.5,5l3.75,5.75c-5.25,0-5.25,0-5.25,0
		L15,18.75h4.5c0.5,0,2.5,0,2.5-2s-1.75-2.25-2.5-2.25c-3.75,0-3.75,0-3.75,0c0,13,0,13,0,13c-4,0-4,0-4,0
		C11.75,11,11.75,11,11.75,11L11.75,11z"/>
</g>
</svg>
