<?xml version="1.0" encoding="utf-8"?>
<!-- Generator: Adobe Illustrator 16.0.0, SVG Export Plug-In . SVG Version: 6.00 Build 0)  -->
<!DOCTYPE svg PUBLIC "-//W3C//DTD SVG 1.1//EN" "http://www.w3.org/Graphics/SVG/1.1/DTD/svg11.dtd">
<svg version="1.1" id="Layer_1" xmlns="http://www.w3.org/2000/svg" xmlns:xlink="http://www.w3.org/1999/xlink" x="0px" y="0px"
	 width="72px" height="72px" viewBox="0 0 72 72" enable-background="new 0 0 72 72" xml:space="preserve">
<g>
	<path fill="#FFFFFF" d="M12.5,36.25C12.5,48.75,22.75,59,35.25,59S58,48.75,58,36.25S47.75,13.5,35.25,13.5S12.5,23.75,12.5,36.25
		L12.5,36.25z"/>
	<path fill="#EE322B" d="M35.25,48C41.75,48,47,42.75,47,36.25S41.75,24.5,35.25,24.5S23.5,29.75,23.5,36.25S28.75,48,35.25,48
		L35.25,48z"/>
	<path fill="#EE322B" d="M69.5,36.25c0,19-15.25,34.25-34.25,34.25S1,55.25,1,36.25S16.25,2,35.25,2S69.5,17.25,69.5,36.25
		L69.5,36.25z M35.25,59C47.75,59,58,48.75,58,36.25S47.75,13.5,35.25,13.5S12.5,23.75,12.5,36.25S22.75,59,35.25,59L35.25,59z"/>
</g>
</svg>
